<svg id="Layer_1" data-name="Layer 1" xmlns="http://www.w3.org/2000/svg" viewBox="0 0 1000 1000"><defs><style>.cls-1,.cls-4{fill:none;}.cls-1,.cls-2,.cls-3,.cls-4{stroke:#fff;stroke-miterlimit:10;}.cls-1{stroke-width:10.16px;}.cls-2{stroke-width:23.05px;}.cls-3,.cls-4{stroke-width:8.64px;}.cls-5{fill:#fff;}</style></defs><title>CIvTechWR_brandmark</title><path class="cls-1" d="M723.64,268.61c-45.7-73-67.81-149-113.54-222.11-9.12,5.82-18.55,11.87-28,17.86-5.88,3.72-11.85,7.3-17.69,11.08a7.67,7.67,0,0,0-3,3.35c-3.59,9.49-7,19.06-10.45,28.61l-4,10.89a8.47,8.47,0,0,1-.25,1c-5.41,14.77-10.79,29.54-16.27,44.28-1.53,4.12-3.36,8.14-5.16,12.47L395.09,57.88c-9.73,10.56-19.48,21.24-29.34,31.81-10.42,11.17-21,22.22-31.42,33.36-7.28,7.77-14.49,15.6-21.74,23.4l-12,13.47c-7.64,8.44-15.38,16.81-22.89,25.36-7.76,8.84-15.31,17.85-22.92,26.81-8.55,10.07-17.06,20.17-25.53,30.19q25.54,23.78,51,47.48A108.36,108.36,0,0,0,289,297c5.83,4.37,7.82,11,10.35,17.27,7.72,19.11,15.26,38.29,22.87,57.45,3.57,9,7.08,18,10.79,26.88a9.3,9.3,0,0,1,.42,6.06c-2.39,10.41-4.65,20.85-7,31.28l-2.62,11.22c-.83,4.62-1.57,9.25-2.51,13.84-2.36,11.41-4.7,22.82-7.25,34.18-3.12,13.94-6.46,27.83-9.82,42.25,3.87,0,7.28,0,10.69.12,18.12.51,36.24,1.16,54.36,1.54,13.66.29,27.32.34,41,.33s27.42-.42,41.13-.31c14.1.1,29.55-.17,43.65.07,10.34.18,19.32,1,29.66,1.1a33.31,33.31,0,0,1,4.29.61"/><path class="cls-1" d="M528.4,549.24c.69,10.76,1.42,21.52,2.07,32.29.69,11.48,1.37,23,1.94,34.47.55,11.2.92,22.41,1.43,33.61.24,5.27.62,10.53.94,16l98.18-.31,1.56-.37a10.82,10.82,0,0,0,2.11.47c12.55.12,25.11-.09,37.65.37,15.94.6,31.85-.29,47.78-.37,13.92-.06,27.84,0,41.76.12,5.65,0,11.3.16,16.95.24l4.83-14.4-1.43-27.15,65.75,1.82c0-20.08,0-39.42.07-58.75,0-6.62.35-13.23.54-19.84L787,542.63l-7.57-19.89c-.08-1.74-.17-3.49-.25-5.23l-.94-15a47.24,47.24,0,0,1,.63-13.59l-55.18-220.3"/><circle class="cls-2" cx="481.37" cy="400.63" r="12.24"/><circle class="cls-2" cx="726.96" cy="576.9" r="12.24"/><circle class="cls-2" cx="541.34" cy="268.83" r="12.24"/><circle class="cls-2" cx="525.26" cy="176.01" r="12.24"/><circle class="cls-2" cx="291.97" cy="297.92" r="12.24"/><circle class="cls-2" cx="523.06" cy="541.49" r="12.24"/><circle class="cls-2" cx="447.12" cy="342.99" r="12.24"/><line class="cls-3" x1="530.83" y1="188.26" x2="540.8" y2="267.96"/><polyline class="cls-4" points="291.97 297.92 448.42 344.55 535.87 274.83"/><polyline class="cls-4" points="726.96 576.9 522.7 541.09 476.6 388.33 446.8 344.39"/><path class="cls-5" d="M189.42,740.68a23,23,0,0,0-11.85-9.48,23.42,23.42,0,0,0-8-1.36,26.34,26.34,0,0,0-12.92,2.94,24.43,24.43,0,0,0-8.62,7.9A34.73,34.73,0,0,0,143.25,752,56.45,56.45,0,0,0,141.74,765a52.35,52.35,0,0,0,1.51,12.56,34,34,0,0,0,4.81,11,24.59,24.59,0,0,0,8.62,7.82,26.23,26.23,0,0,0,12.92,3q10.34,0,16.15-6.32t7.11-16.66h21.83a52.33,52.33,0,0,1-4.45,17.38A41.82,41.82,0,0,1,200.76,807,40.41,40.41,0,0,1,187,815.28a50.66,50.66,0,0,1-17.38,2.87,52.54,52.54,0,0,1-21.18-4.09,45.41,45.41,0,0,1-15.87-11.28,49.83,49.83,0,0,1-9.9-16.87A61.82,61.82,0,0,1,119.2,765a64,64,0,0,1,3.45-21.32,51.17,51.17,0,0,1,9.9-17.16,45.42,45.42,0,0,1,15.87-11.49,55,55,0,0,1,37.19-1.72,43.36,43.36,0,0,1,13.5,7.11A38.37,38.37,0,0,1,208.94,732a41.26,41.26,0,0,1,4.89,15.8H192A18.37,18.37,0,0,0,189.42,740.68Z"/><path class="cls-5" d="M252.6,713.33V815.85H230.05V713.33Z"/><path class="cls-5" d="M294.67,815.85,261.5,713.33h23.12l22.83,72.08h.29l23.11-72.08h23.27l-34,102.52Z"/><path class="cls-5" d="M385.42,713.33V815.85H362.87V713.33Z"/><path class="cls-5" d="M471,740.68a22.79,22.79,0,0,0-5-5.67,23.1,23.1,0,0,0-6.82-3.81,23.38,23.38,0,0,0-8-1.36,26.34,26.34,0,0,0-12.92,2.94,24.6,24.6,0,0,0-8.62,7.9A34.73,34.73,0,0,0,424.83,752a56.45,56.45,0,0,0-1.5,13.07,52.34,52.34,0,0,0,1.5,12.56,34,34,0,0,0,4.81,11,24.76,24.76,0,0,0,8.62,7.82,26.23,26.23,0,0,0,12.92,3q10.35,0,16.16-6.32t7.11-16.66h21.82a52.09,52.09,0,0,1-4.45,17.38A41.51,41.51,0,0,1,482.34,807a40.32,40.32,0,0,1-13.78,8.33,50.66,50.66,0,0,1-17.38,2.87A52.54,52.54,0,0,1,430,814.06a45.37,45.37,0,0,1-15.86-11.28,49.85,49.85,0,0,1-9.91-16.87A61.82,61.82,0,0,1,400.78,765a64,64,0,0,1,3.45-21.32,51.19,51.19,0,0,1,9.91-17.16A45.38,45.38,0,0,1,430,715.05a55,55,0,0,1,37.19-1.72,43.36,43.36,0,0,1,13.5,7.11A38.55,38.55,0,0,1,490.53,732a41.43,41.43,0,0,1,4.88,15.8H473.58A18.37,18.37,0,0,0,471,740.68Z"/><path class="cls-5" d="M194.3,841v8.32H158.54v94.2h-9.76v-94.2H113.17V841Z"/><path class="cls-5" d="M274.71,841v8.32h-61v37.05h57.15v8.33H213.68v40.49h61.75v8.33H203.92V841Z"/><path class="cls-5" d="M359.79,861.43a29.13,29.13,0,0,0-7.18-7.83,32.21,32.21,0,0,0-9.34-4.81,34.45,34.45,0,0,0-10.69-1.65q-10.2,0-17.52,3.88a34.65,34.65,0,0,0-12,10.26,44.4,44.4,0,0,0-6.9,14.43,62.28,62.28,0,0,0,0,33,44.28,44.28,0,0,0,6.9,14.5,34.78,34.78,0,0,0,12,10.27,37,37,0,0,0,17.52,3.88,31.22,31.22,0,0,0,12.92-2.59,30.58,30.58,0,0,0,9.91-7,36.2,36.2,0,0,0,6.75-10.41,43.45,43.45,0,0,0,3.3-12.85h9.76a55.23,55.23,0,0,1-4.45,17.09,41.84,41.84,0,0,1-8.9,12.92A37.66,37.66,0,0,1,349,942.63a45.17,45.17,0,0,1-16.44,2.87,48.33,48.33,0,0,1-21.18-4.38,44,44,0,0,1-15.15-11.7,49.71,49.71,0,0,1-9.05-16.95,69.59,69.59,0,0,1,0-40.49,50.7,50.7,0,0,1,9.05-17,43.67,43.67,0,0,1,15.15-11.77A51.24,51.24,0,0,1,346.86,841a41.23,41.23,0,0,1,12.64,6.38A37.48,37.48,0,0,1,369,857.76,35.16,35.16,0,0,1,373.79,872H364A32.8,32.8,0,0,0,359.79,861.43Z"/><path class="cls-5" d="M399.92,841v44.51H460.8V841h9.77V943.49H460.8V893.81H399.92v49.68h-9.76V841Z"/><path class="cls-5" d="M566.06,943.49,548.68,873.7h-.29l-17.08,69.79H508.48L481.34,841h22.54l16.23,69.78h.28L538.2,841h21.11l17.52,70.64h.28L593.91,841H616L588.46,943.49Z"/><path class="cls-5" d="M681.65,841a33.11,33.11,0,0,1,12.42,2.22,28.75,28.75,0,0,1,9.47,6.1,26.47,26.47,0,0,1,6,9,28.74,28.74,0,0,1,2.09,11,30.78,30.78,0,0,1-3.81,15.65Q704,891.51,695.43,895v.28a17.41,17.41,0,0,1,6.89,3.52,19.39,19.39,0,0,1,4.45,5.6,26.18,26.18,0,0,1,2.52,7.11,62.47,62.47,0,0,1,1.07,7.75q.15,2.44.29,5.75c.1,2.2.26,4.45.5,6.75a46.47,46.47,0,0,0,1.15,6.53,15.22,15.22,0,0,0,2.37,5.24H692.13a39.61,39.61,0,0,1-2.3-11.63q-.44-6.75-1.29-12.92-1.15-8.06-4.88-11.78t-12.21-3.73H648.91v40.06H626.36V841Zm-8,46.37q7.75,0,11.64-3.44t3.87-11.2q0-7.47-3.87-10.84t-11.64-3.38H648.91v28.86Z"/></svg>