<svg version="1" xmlns="http://www.w3.org/2000/svg" width="413.333" height="413.333" viewBox="0 0 310.000000 310.000000"><path d="M168 40.3c-5.2 3.4-10 7.3-10.7 8.7-.7 1.4-3.1 7.7-5.5 14.2-3.9 10.8-4.4 11.7-7.1 12.1-2.5.3-4.4-1-15.1-10.7-6.7-6.1-16.1-14.7-21-19.1l-8.8-7.9-6.6 6.9C59.8 79.7 37 105.6 37 108.4c0 .9 3.6 5 8 9.2 7.3 7 8 8 8 11.6 0 4.5 3.2 8.2 7.8 9.1 2.5.5 3.3 1.9 8.1 14.1 4 10 5.2 14.4 4.8 16.8-.7 4.6-5.1 25.5-7.7 37-1.3 5.3-2 10.2-1.7 11 .7 1.9 31.5 3 55 2.1l15.7-.6 3.9 4.1c2.1 2.3 4.5 4.2 5.3 4.2 1.2 0 1.6 2.5 2.2 14.3.4 7.8.9 16.3 1.3 18.9l.6 4.8H242l1.1-2.8c.6-1.5 1.1-4.6 1.1-6.9v-4.2l11.6-.3 11.7-.3v-34l-10.9-.7c-6.9-.5-11.5-1.3-12.3-2.1-.7-.7-1.7-5.5-2.2-10.7-.5-5.2-1.9-13.1-3-17.5l-6-24c-2.2-8.8-5.6-22.4-7.5-30.2-2.3-9.2-4.6-15.8-6.5-19-1.6-2.6-6.1-11.3-9.9-19.3-3.9-8-10.6-21.9-14.9-31-7.9-16.3-14.5-28-16-28-.5 0-5.1 2.8-10.3 6.3zm11.7 5.9C182 50 196 78.3 196 79.4c0 1.1 10 21.3 14.8 30 5.7 10.3 6.2 12 14.7 46.6 1.3 5.2 3.9 15.8 5.9 23.5 2.1 7.6 4.1 18.2 4.6 23.5 1.1 11.6 2.5 15.9 5.6 17 1.3.5 6.4 1.2 11.4 1.6l9 .7v23l-11-.5c-12.8-.5-13.3-.2-13 6.9.2 2.6.2 5.4.1 6-.1 1-9.3 1.3-42.4 1.3h-42.4l-.6-10.7c-1-15.7-.8-22.6.7-24.6 1.6-2.1 4.4-2.1 13.9-.3 4 .8 11.5 2.1 16.7 3 5.2.9 11.5 2.1 14 2.6s6.3 1.2 8.6 1.5c3.3.5 4.2 1.1 5.1 3.5 1.4 3.7 7 6.6 10.8 5.6 4.2-1.1 7.5-5.3 7.5-9.6 0-8.7-11.4-12.8-17.4-6.1-1.4 1.6-2.2 1.6-8.8.4-4-.7-10.2-1.7-13.8-2.3-19.4-3.2-33.5-6.1-33.8-7.1-.9-2.6-5.6-6.9-7.6-6.9-1.9 0-2.6-1.2-5-9.3-1.6-5-3.9-12.5-5.2-16.6l-2.3-7.4 2.4-2.9c3.6-4.2 3.3-8.2-.9-12.4-2.3-2.3-4.3-3.4-6.3-3.4-3.3 0-6.2-3.5-4.4-5.3.6-.6 1.1-2.8 1.1-4.8 0-3.6.6-4.2 9.4-11.3 9.2-7.4 9.5-7.6 13.8-7 3.8.5 4.8.3 7.6-2.1 2.7-2.3 3.2-3.3 3.2-7.3 0-5-2.8-9.2-6.2-9.2-1.4 0-1.8-.8-1.8-3.3 0-1.7-.5-5.1-1-7.4-.9-3.7-.7-4.6 1.5-7.9 2.9-4.3 3.1-6.4.8-11.1-1.6-3.4-1.5-3.8.6-9.7 1.3-3.3 3.3-9 4.6-12.6 2.1-6 2.8-6.8 8.7-10.7 3.4-2.3 6.6-4.2 7-4.2.4-.1 2 1.8 3.5 4.1zm-60.2 17.2c15.7 14.3 18.5 17.3 18.1 19.2-1.2 4.7 3.4 11.4 7.8 11.4 1.5 0 2.1 2.3 2.9 10.5.3 3.3-.2 4.7-2.6 7.7s-2.9 4.4-2.4 7.1c.5 3.2.2 3.6-7.1 9.3-4.1 3.2-8.2 6.5-9 7.3-1.1 1.2-2 1.2-4.6.3-4.7-1.7-6.1-1.5-9.4 1.3l-3 2.5-6.9-1.9c-3.7-1.1-12.2-3.6-18.7-5.5-6.6-2-12.1-3.6-12.3-3.6-.1 0-.3-.9-.3-1.9 0-1-1.4-3.3-3-5.1-2.9-3.1-3.4-3.2-8-2.7-4.8.6-4.9.5-11.1-5.2l-6.3-5.8 7.9-9.4c8.8-10.4 25.9-29.2 37.3-41 4-4.2 8-8.7 8.9-9.8.8-1.2 1.9-2.1 2.4-1.9.4.2 9.2 7.9 19.4 17.2zm-28.7 76.7c14.1 4.1 18.2 5.7 18.2 7 0 2.9 4.6 6.8 8.9 7.5 5.1.8 7 2.8 5.3 5.5-.7 1-1.2 3.8-1.2 6.2 0 4.6 2 7.2 7.1 9.4 1.9.8 2.8 2.3 3.7 5.9 1.5 5.9 2.3 8.5 5.5 18.9 2.3 7.4 2.3 8.1.8 10.2-1.6 2.2-1.7 2.2-34.8 2.3-18.3 0-33.3-.3-33.3-.8 0-.4.7-3.9 1.5-7.7.8-3.9 2.6-12.4 4-19s2.9-13.5 3.4-15.3c.9-2.8.2-5.3-4.9-18.4-5.4-14.2-6.3-18.5-3.6-17.5.6.2 9.3 2.8 19.4 5.8z"/></svg>